<svg width="1440" height="1217" viewBox="0 0 1440 1217" fill="none" xmlns="http://www.w3.org/2000/svg">
<path d="M1449.91 994.355C1451.5 1015.15 1433.4 1058.45 1348.17 1065.26C1241.63 1073.77 1244.51 1103.55 1228.19 1127.66C1211.88 1151.77 1185.96 1175.88 1094.78 1156.73C1003.6 1137.59 914.338 1131.2 846.193 1176.58C791.676 1212.89 738.904 1217 719.5 1217C700.096 1217 647.323 1212.89 592.807 1176.58C524.661 1131.2 435.4 1137.59 344.219 1156.73C253.038 1175.88 227.123 1151.77 210.807 1127.66C194.491 1103.55 197.37 1073.77 90.8332 1065.26C5.60361 1058.45 -12.5055 1015.15 -10.9061 994.355V0H1449.91V994.355Z" fill="#F0F0F0"/>
</svg>
