<svg width="1440" height="893" viewBox="0 0 1440 893" fill="none" xmlns="http://www.w3.org/2000/svg">
<path d="M91.7632 111.342C6.59157 116.336 -11.5042 148.109 -9.90564 163.37L-9.90564 893L1449.91 893V163.37C1451.5 148.109 1433.41 116.336 1348.24 111.342C1241.77 105.098 1244.65 83.246 1228.34 65.5562C1212.04 47.8665 1186.14 30.1767 1095.02 44.2245C1003.91 58.2723 914.705 62.9548 846.606 29.6564C792.127 3.01764 739.391 -6.10352e-05 720 -6.10352e-05C700.609 -6.10352e-05 647.872 3.01764 593.393 29.6564C525.294 62.9548 436.094 58.2723 344.976 44.2245C253.858 30.1767 227.961 47.8665 211.656 65.5562C195.35 83.246 198.228 105.098 91.7632 111.342Z" fill="#1D1534"/>
<path d="M91.7632 111.342C6.59157 116.336 -11.5042 148.109 -9.90564 163.37L-9.90564 893L1449.91 893V163.37C1451.5 148.109 1433.41 116.336 1348.24 111.342C1241.77 105.098 1244.65 83.246 1228.34 65.5562C1212.04 47.8665 1186.14 30.1767 1095.02 44.2245C1003.91 58.2723 914.705 62.9548 846.606 29.6564C792.127 3.01764 739.391 -6.10352e-05 720 -6.10352e-05C700.609 -6.10352e-05 647.872 3.01764 593.393 29.6564C525.294 62.9548 436.094 58.2723 344.976 44.2245C253.858 30.1767 227.961 47.8665 211.656 65.5562C195.35 83.246 198.228 105.098 91.7632 111.342Z" fill="#4367FF"/>
</svg>
