<svg width="1440" height="1027" viewBox="0 0 1440 1027" fill="none" xmlns="http://www.w3.org/2000/svg">
<path d="M91.2056 898.951C6.50065 893.207 -11.496 856.667 -9.90616 839.115L-9.90616 0L1441.91 0V419.557V839.115C1443.5 856.667 1425.5 893.207 1340.79 898.951C1234.91 906.131 1237.77 931.262 1221.56 951.607C1205.34 971.951 1179.59 992.295 1088.97 976.139C998.35 959.984 909.638 954.598 841.913 992.893C787.732 1023.53 735.284 1027 716 1027C696.716 1027 644.268 1023.53 590.087 992.893C522.361 954.598 433.65 959.984 343.031 976.139C252.412 992.295 226.657 971.951 210.441 951.607C194.225 931.262 197.087 906.131 91.2056 898.951Z" fill="#1D1534"/>
<path d="M91.2056 898.951C6.50065 893.207 -11.496 856.667 -9.90616 839.115L-9.90616 0L1441.91 0V419.557V839.115C1443.5 856.667 1425.5 893.207 1340.79 898.951C1234.91 906.131 1237.77 931.262 1221.56 951.607C1205.34 971.951 1179.59 992.295 1088.97 976.139C998.35 959.984 909.638 954.598 841.913 992.893C787.732 1023.53 735.284 1027 716 1027C696.716 1027 644.268 1023.53 590.087 992.893C522.361 954.598 433.65 959.984 343.031 976.139C252.412 992.295 226.657 971.951 210.441 951.607C194.225 931.262 197.087 906.131 91.2056 898.951Z" fill="#4367FF"/>
</svg>
