<svg viewBox="0 0 1460 893" xmlns="http://www.w3.org/2000/svg">
  <!-- Forma ondulada tipo nube con ondulaciones más pronunciadas -->
  <path d="M 0,150 
           C 40,80 80,40 130,50
           C 180,60 220,20 270,35
           C 320,50 360,15 410,30
           C 460,45 500,70 550,50
           C 600,30 640,10 690,30
           C 740,50 780,75 830,55
           C 880,35 920,15 970,35
           C 1020,55 1060,20 1110,35
           C 1160,50 1200,15 1250,30
           C 1300,45 1340,75 1390,85
           C 1420,90 1440,95 1460,100
           L 1460,793
           C 1440,798 1420,803 1390,808
           C 1340,818 1300,848 1250,863
           C 1200,878 1160,873 1110,858
           C 1060,843 1020,868 970,858
           C 920,848 880,878 830,863
           C 780,848 740,873 690,863
           C 640,853 600,883 550,873
           C 500,863 460,878 410,863
           C 360,848 320,873 270,858
           C 220,843 180,873 130,863
           C 80,853 40,823 0,793
           Z" 
        fill="#4169ff"/>
</svg>